<mxfile host="Electron" modified="2024-05-04T10:13:08.387Z" agent="Mozilla/5.0 (X11; Linux x86_64) AppleWebKit/537.36 (KHTML, like Gecko) draw.io/24.2.5 Chrome/120.0.6099.109 Electron/28.1.0 Safari/537.36" etag="FzvE1fajSQCfOB4n9SHF" version="24.2.5" type="device">
  <diagram name="Page-1" id="mUALYDlM9YMtWR8MbuK0">
    <mxGraphModel dx="1993" dy="698" grid="1" gridSize="10" guides="1" tooltips="1" connect="1" arrows="1" fold="1" page="1" pageScale="1" pageWidth="850" pageHeight="1100" math="0" shadow="0">
      <root>
        <mxCell id="0" />
        <mxCell id="1" parent="0" />
        <mxCell id="a9l7KjIuHDaAtShn7mzd-1" value="" style="whiteSpace=wrap;html=1;aspect=fixed;" vertex="1" parent="1">
          <mxGeometry x="-10" y="30" width="790" height="790" as="geometry" />
        </mxCell>
        <mxCell id="a9l7KjIuHDaAtShn7mzd-2" value="Activities Page" style="text;html=1;align=center;verticalAlign=middle;whiteSpace=wrap;rounded=0;strokeWidth=5;fontSize=19;" vertex="1" parent="1">
          <mxGeometry x="317.5" y="50" width="135" height="30" as="geometry" />
        </mxCell>
        <mxCell id="a9l7KjIuHDaAtShn7mzd-3" value="" style="rounded=0;whiteSpace=wrap;html=1;" vertex="1" parent="1">
          <mxGeometry x="50" y="150" width="340" height="270" as="geometry" />
        </mxCell>
        <mxCell id="a9l7KjIuHDaAtShn7mzd-4" value="" style="rounded=0;whiteSpace=wrap;html=1;" vertex="1" parent="1">
          <mxGeometry x="410" y="150" width="300" height="270" as="geometry" />
        </mxCell>
        <mxCell id="a9l7KjIuHDaAtShn7mzd-5" value="&lt;div&gt;ActivityButton&lt;/div&gt;" style="text;html=1;align=center;verticalAlign=middle;whiteSpace=wrap;rounded=0;" vertex="1" parent="1">
          <mxGeometry x="530" y="160" width="60" height="30" as="geometry" />
        </mxCell>
        <mxCell id="a9l7KjIuHDaAtShn7mzd-8" value="Button" style="rounded=0;whiteSpace=wrap;html=1;" vertex="1" parent="1">
          <mxGeometry x="420" y="205" width="120" height="60" as="geometry" />
        </mxCell>
        <mxCell id="a9l7KjIuHDaAtShn7mzd-9" value="" style="rounded=0;whiteSpace=wrap;html=1;" vertex="1" parent="1">
          <mxGeometry x="580" y="205" width="120" height="200" as="geometry" />
        </mxCell>
        <mxCell id="a9l7KjIuHDaAtShn7mzd-10" value="Drawer" style="text;html=1;align=center;verticalAlign=middle;whiteSpace=wrap;rounded=0;" vertex="1" parent="1">
          <mxGeometry x="610" y="220" width="60" height="30" as="geometry" />
        </mxCell>
        <mxCell id="a9l7KjIuHDaAtShn7mzd-15" style="edgeStyle=orthogonalEdgeStyle;rounded=0;orthogonalLoop=1;jettySize=auto;html=1;exitX=0.5;exitY=0;exitDx=0;exitDy=0;entryX=0.5;entryY=0;entryDx=0;entryDy=0;fillColor=#a20025;strokeColor=#6F0000;strokeWidth=11;" edge="1" parent="1" source="a9l7KjIuHDaAtShn7mzd-11" target="a9l7KjIuHDaAtShn7mzd-13">
          <mxGeometry relative="1" as="geometry">
            <Array as="points">
              <mxPoint x="640" y="110" />
              <mxPoint x="210" y="110" />
            </Array>
          </mxGeometry>
        </mxCell>
        <mxCell id="a9l7KjIuHDaAtShn7mzd-11" value="Actvity Card 1" style="rounded=0;whiteSpace=wrap;html=1;" vertex="1" parent="1">
          <mxGeometry x="595" y="255" width="90" height="60" as="geometry" />
        </mxCell>
        <mxCell id="a9l7KjIuHDaAtShn7mzd-12" value="Actvity Card ...n" style="rounded=0;whiteSpace=wrap;html=1;" vertex="1" parent="1">
          <mxGeometry x="595" y="330" width="90" height="60" as="geometry" />
        </mxCell>
        <mxCell id="a9l7KjIuHDaAtShn7mzd-13" value="Polyline" style="rounded=0;whiteSpace=wrap;html=1;" vertex="1" parent="1">
          <mxGeometry x="150" y="255" width="120" height="60" as="geometry" />
        </mxCell>
        <mxCell id="a9l7KjIuHDaAtShn7mzd-14" value="CustomMap" style="text;html=1;align=center;verticalAlign=middle;whiteSpace=wrap;rounded=0;" vertex="1" parent="1">
          <mxGeometry x="180" y="160" width="60" height="30" as="geometry" />
        </mxCell>
        <mxCell id="a9l7KjIuHDaAtShn7mzd-16" value="Polyline color" style="text;html=1;align=center;verticalAlign=middle;whiteSpace=wrap;rounded=0;" vertex="1" parent="1">
          <mxGeometry x="540" y="80" width="110" height="30" as="geometry" />
        </mxCell>
        <mxCell id="a9l7KjIuHDaAtShn7mzd-18" value="State in activities page" style="text;html=1;align=center;verticalAlign=middle;whiteSpace=wrap;rounded=0;" vertex="1" parent="1">
          <mxGeometry x="60" y="450" width="160" height="30" as="geometry" />
        </mxCell>
      </root>
    </mxGraphModel>
  </diagram>
</mxfile>
